<?xml version="1.0" encoding="iso-8859-1"?>
<!-- Uploaded to: SVG Repo, www.svgrepo.com, Generator: SVG Repo Mixer Tools -->
<svg fill="#000000" height="800px" width="800px" version="1.1" id="Layer_1" xmlns="http://www.w3.org/2000/svg" xmlns:xlink="http://www.w3.org/1999/xlink" 
	 viewBox="0 0 512 512" xml:space="preserve">
<g>
	<g>
		<path d="M332.8,76.8c-8.747,0-17.271,0.845-25.685,2.057C276.966,61.38,242.082,51.2,204.8,51.2C91.87,51.2,0,143.07,0,256
			s91.87,204.8,204.8,204.8c37.282,0,72.166-10.18,102.315-27.657c8.414,1.212,16.939,2.057,25.685,2.057
			c98.807,0,179.2-80.393,179.2-179.2S431.607,76.8,332.8,76.8z M204.8,435.2c-98.97,0-179.2-80.23-179.2-179.2
			S105.83,76.8,204.8,76.8c22.605,0,44.143,4.361,64.06,11.998C201.574,114.62,153.6,179.738,153.6,256
			s47.974,141.38,115.26,167.202C248.943,430.839,227.405,435.2,204.8,435.2z M301.884,406.485
			C231.868,392.175,179.2,330.24,179.2,256s52.668-136.175,122.684-150.485C351.249,137.429,384,192.845,384,256
			S351.249,374.571,301.884,406.485z M340.224,409.225C382.66,371.678,409.6,316.988,409.6,256s-26.94-115.678-69.376-153.225
			C421.581,106.675,486.4,173.679,486.4,256S421.581,405.325,340.224,409.225z"/>
	</g>
</g>
</svg>